<svg xmlns="http://www.w3.org/2000/svg" xml:space="preserve" width="162.805mm" height="162.805mm" version="1.1" style="shape-rendering:geometricPrecision; text-rendering:geometricPrecision; image-rendering:optimizeQuality; fill-rule:evenodd; clip-rule:evenodd"
viewBox="0 0 18145.75 18145.75"
 xmlns:xlink="http://www.w3.org/1999/xlink"
 xmlns:xodm="http://www.corel.com/coreldraw/odm/2003">
 <defs>
  <style type="text/css">
   <![CDATA[
    .fil0 {fill:none}
    .fil2 {fill:white}
    .fil1 {fill:#B08F87}
   ]]>
  </style>
   <clipPath id="id0">
    <path d="M9079.38 872.48c4515.8,0 8176.58,3660.77 8176.58,8176.57 0,4515.8 -3660.77,8176.58 -8176.58,8176.58 -4515.79,0 -8176.57,-3660.77 -8176.57,-8176.58 0,-4515.79 3660.77,-8176.57 8176.57,-8176.57z"/>
   </clipPath>
 </defs>
 <g id="Capa_x0020_1">
  <metadata id="CorelCorpID_0Corel-Layer"/>
  <path class="fil0 str0" d="M9072.88 78.64c4967.37,0 8994.22,4026.85 8994.22,8994.22 0,4967.38 -4026.85,8994.24 -8994.22,8994.24 -4967.38,0 -8994.24,-4026.85 -8994.24,-8994.24 0,-4967.37 4026.85,-8994.22 8994.24,-8994.22z"/>
  <path class="fil1" d="M9079.38 872.48c4515.8,0 8176.58,3660.77 8176.58,8176.57 0,4515.8 -3660.77,8176.58 -8176.58,8176.58 -4515.79,0 -8176.57,-3660.77 -8176.57,-8176.58 0,-4515.79 3660.77,-8176.57 8176.57,-8176.57z"/>
  <g style="clip-path:url(#id0)">
   <g id="_105553137407104">
    <g>
     <path id="_1" class="fil2" d="M12511.83 10212.8c668.06,0.82 707.38,13.12 707.11,699.49 -0.25,643.04 -72.96,694.02 -709.29,697.7l2.17 -1397.19zm-722.38 -239.12l1.77 4149.01 726.46 -16.11 -7.98 -1835.27c566.8,-22.47 701.43,53.8 714.15,613.01 10.27,450.83 -24.98,796.48 57.41,1232.37l720.5 5.09c-47.16,-543.24 -70.98,-607.56 -58.78,-1136.3 -0.66,-563.92 -59.64,-868.35 -438.18,-1065.36 8.5,-11.36 22.3,-41.72 27.04,-32.84l106.81 -115.59c358.95,-365.4 347.64,-958.37 272.88,-1449.77 -140.48,-923.36 -1149.51,-761.61 -2121.11,-763.31l-0.97 415.06z"/>
     <path class="fil2" d="M10042.42 4622.85l579.53 55.37c150.28,224.53 158.88,588.5 122.29,949 -42.34,417.32 -282.68,419.67 -702.68,394.74l0.86 -1399.11zm-720.19 3917.56l715.15 -5.36 5.92 -1841.44c884.31,-39.85 682.12,318.34 710.66,1206.37l39.87 636.86 749.35 7.56c-101.87,-838.9 -68.32,-534.99 -69.25,-1236.9 -0.16,-198.98 -21.53,-405.38 -87.62,-582.7 -95.43,-256.08 -143.56,-247.59 -340.9,-404.77 313.45,-359.02 543.4,-460.71 402.8,-1530.86 -126.8,-965.23 -1140.96,-815.97 -2127.07,-803.77l1.09 4555z"/>
     <path class="fil2" d="M5615.8 12639.87c0.08,254.29 58.64,687.04 -159.08,824.03 -257.38,161.94 -519.89,13.15 -567.38,-238.77 -31.95,-169.49 -22.92,-752.08 24.59,-894.28 94.69,-283.52 368.07,-268.63 702.62,-252.81l-0.75 561.83zm-1018.76 -938.11l-166.94 146.96c-160.94,152.33 -235.97,384.64 -261.83,613.54 -218.97,1937.08 860.97,2005.2 1449.05,1347.57 20.02,160.31 16.55,195.83 99.07,309.28l690.32 0.3c-62.1,-207.01 -180.5,-1861.97 11.5,-2052.02 8.73,-8.64 22.87,-17.26 31.55,-24.5l70.71 -44.88c1.23,-805.22 12.52,-480.45 -192.15,-641.85l1.55 -444.33 -708.68 -2.82 -6.68 501.4c-682.56,17.81 -795.78,-61.83 -738.53,-797.19 46.01,-590.75 629.57,-366.69 1167.01,-411.51l7.36 -621.04c-552.95,-90.9 -1436.3,-104.25 -1739.95,417.66 -233.1,400.62 -294.96,1249.92 286.64,1703.44z"/>
     <path class="fil2" d="M12595.99 5085.67c-0.06,-317.45 103.57,-564.75 467.77,-490.31 319.19,65.26 274.62,405.39 274.85,737.19l-0.59 1876.21c0,278.35 37,579.61 -170.5,688.37 -225.45,118.18 -472.79,17.79 -541.56,-191.37 -58.24,-177.15 -30.31,-2186.11 -29.98,-2620.08zm-5.25 -1098.89c-958.82,308.27 -711.53,1402.47 -711.51,2728.22 0.02,521.45 -62.66,1114.21 201.81,1485.74 229.46,322.29 744.34,497.31 1287.95,338.54 936.18,-273.41 686.95,-1670.46 688.29,-2713 0.67,-528.07 72.51,-1086.41 -194.48,-1480.3 -224.62,-331.43 -719.01,-536.99 -1272.07,-359.19z"/>
     <path class="fil2" d="M8928.3 11585.54l-994.82 -4.98 -3.13 614.97c134.51,61.85 44.45,4.86 158.25,39.54l162.06 59.17c9.45,439.43 144.75,1376.16 -481.07,1204.54 -413.43,-113.38 -258.25,-1067.32 -258.41,-1500.78 -0.13,-300.87 -38.89,-1476.31 51.5,-1660.45 96.51,-196.62 455.31,-253.36 605.6,-53.91 120.38,159.77 78.4,568.65 92.23,798.89l660.74 18.81c38.63,-512.86 24.9,-1021.22 -291.35,-1325.42 -293.2,-282.02 -869.31,-358.98 -1300.86,-163.93 -774.82,350.21 -532.01,1831.09 -532.38,2731.63 -0.22,520.65 -69.58,1029.05 196.52,1438.54 208.12,320.28 692.71,474.93 1208.95,356.24 940.43,-216.18 758.72,-1588.25 726.17,-2552.86z"/>
     <path class="fil2" d="M7720.43 5051.82c3.49,10.88 8.97,25.68 12.51,37.98l148.9 935.04c44.58,305.74 149.68,781.41 141.25,1073.94l-667.47 -10.59 364.82 -2036.38zm-1238.34 3493.53l661.19 -5.92 117.19 -821.27 868.72 -5.39 131.39 804.86 718.12 28.2c-32.1,-444.44 -653.96,-4370.16 -744.24,-4548.06 -1277.12,-24.64 -982.42,-304.21 -1199.13,1070.81l-553.23 3476.77z"/>
     <path class="fil2" d="M6223.05 6845.09l-666.07 -3.18c-15.84,421.03 114.27,1309.79 -537.81,1064.11 -316.55,-119.25 -207.35,-994.52 -207.35,-1536.64 0,-333.96 -72.3,-1464.8 79.66,-1665.67 148.04,-195.72 482.21,-134.48 588.77,24.57 107.9,161.04 58.15,556.04 89.71,795.61l641.68 -2.92c125.15,-1014.59 -295.81,-1842.06 -1411.19,-1547.09 -908.12,240.14 -709.79,1357.23 -709.79,2346.14 0,968.15 -192.18,2078.82 800.43,2253.78 499.26,88.01 955.05,-77.71 1139.4,-359.92 234.83,-359.48 211.47,-890.57 192.56,-1368.8z"/>
     <path class="fil2" d="M10114.92 12157.19c161.8,-88.11 744.64,-41.42 955.23,-37.94l-4.24 -600.86 -897.93 -18.61c-10.19,-2.44 -29.52,-3.02 -36.59,-18.91 -7.03,-15.8 -25.47,-11.97 -34.4,-22.32l5.95 -1246.97 1227.54 -0.09 12.3 -645.81 -1957.67 -4.56 -2.91 4545.55 1962.2 14.16 -3.86 -640.17 -1231.11 -11.16 5.47 -1312.29z"/>
     <path class="fil2" d="M10114.92 12157.19l980.02 -3.15 5.67 -675.03 -1003.61 -20.47c8.93,10.35 27.36,6.52 34.4,22.32 7.07,15.89 26.4,16.47 36.59,18.91l897.93 18.61 4.24 600.86c-210.59,-3.48 -793.43,-50.17 -955.23,37.94z"/>
    </g>
   </g>
  </g>
  <path class="fil0 str1" d="M9079.38 872.48c4515.8,0 8176.58,3660.77 8176.58,8176.57 0,4515.8 -3660.77,8176.58 -8176.58,8176.58 -4515.79,0 -8176.57,-3660.77 -8176.57,-8176.58 0,-4515.79 3660.77,-8176.57 8176.57,-8176.57z"/>
 </g>
</svg>
